<svg width="25" height="28" viewBox="0 0 25 28" fill="none" xmlns="http://www.w3.org/2000/svg">
<path fill-rule="evenodd" clip-rule="evenodd" d="M17.2115 0.666504C21.4035 0.666504 24.2195 3.53717 24.2195 7.80917V20.0705C24.2195 24.3798 21.4902 27.1825 17.2662 27.2092L7.00885 27.2132C2.81684 27.2132 -0.000488281 24.3425 -0.000488281 20.0705V7.80917C-0.000488281 3.4985 2.72885 0.697171 6.95285 0.671837L17.2102 0.666504H17.2115ZM17.2115 2.6665L6.95951 2.67184C3.85551 2.6905 1.99951 4.6105 1.99951 7.80917V20.0705C1.99951 23.2905 3.87285 25.2132 7.00751 25.2132L17.2595 25.2092C20.3635 25.1905 22.2195 23.2678 22.2195 20.0705V7.80917C22.2195 4.58917 20.3475 2.6665 17.2115 2.6665ZM16.9543 18.6314C17.5063 18.6314 17.9543 19.0794 17.9543 19.6314C17.9543 20.1834 17.5063 20.6314 16.9543 20.6314H7.32765C6.77565 20.6314 6.32765 20.1834 6.32765 19.6314C6.32765 19.0794 6.77565 18.6314 7.32765 18.6314H16.9543ZM16.9543 13.0494C17.5063 13.0494 17.9543 13.4974 17.9543 14.0494C17.9543 14.6014 17.5063 15.0494 16.9543 15.0494H7.32765C6.77565 15.0494 6.32765 14.6014 6.32765 14.0494C6.32765 13.4974 6.77565 13.0494 7.32765 13.0494H16.9543ZM11.0006 7.48037C11.5526 7.48037 12.0006 7.92837 12.0006 8.48037C12.0006 9.03237 11.5526 9.48037 11.0006 9.48037H7.32725C6.77525 9.48037 6.32725 9.03237 6.32725 8.48037C6.32725 7.92837 6.77525 7.48037 7.32725 7.48037H11.0006Z" fill="black"/>
</svg>
