<svg width="28" height="27" viewBox="0 0 28 27" fill="none" xmlns="http://www.w3.org/2000/svg">
<path fill-rule="evenodd" clip-rule="evenodd" d="M10.7892 16.6092C15.1345 16.6092 20.9118 17.0985 20.9118 21.3318C20.9118 25.7912 14.18 26.0588 11.2924 26.0748L10.244 26.0748C7.16509 26.0589 0.666504 25.7928 0.666504 21.3585C0.666504 16.8941 7.39836 16.6263 10.286 16.6102L10.6329 16.6092C10.687 16.6092 10.7391 16.6092 10.7892 16.6092ZM10.7892 18.6092C7.08384 18.6092 2.6665 19.0852 2.6665 21.3585C2.6665 23.1612 5.39984 24.0758 10.7892 24.0758C16.1785 24.0758 18.9118 23.1518 18.9118 21.3318C18.9118 19.5252 16.1785 18.6092 10.7892 18.6092ZM22.9421 15.9864C26.5501 16.5264 27.3061 18.197 27.3061 19.5024C27.3061 20.4744 26.8861 21.7904 24.8821 22.549C24.7661 22.593 24.6461 22.6144 24.5274 22.6144C24.1234 22.6144 23.7434 22.3677 23.5928 21.969C23.3968 21.453 23.6568 20.8744 24.1728 20.6797C25.3061 20.2504 25.3061 19.7264 25.3061 19.5024C25.3061 18.7464 24.4114 18.229 22.6474 17.9664C22.1008 17.8837 21.7234 17.3744 21.8048 16.829C21.8874 16.2824 22.4061 15.9157 22.9421 15.9864ZM10.7892 0.666504C14.5638 0.666504 17.6359 3.7385 17.6359 7.51317C17.6438 9.33184 16.9385 11.0492 15.6532 12.3425C14.3705 13.6372 12.6572 14.3532 10.8345 14.3598H10.7892C7.01317 14.3598 3.94117 11.2878 3.94117 7.51317C3.94117 3.7385 7.01317 0.666504 10.7892 0.666504ZM20.2393 2.1649C22.8593 2.59424 24.7606 4.83557 24.7606 7.4929C24.7553 10.1662 22.7593 12.4622 20.1166 12.8329C20.07 12.8396 20.0233 12.8422 19.9766 12.8422C19.486 12.8422 19.058 12.4809 18.9873 11.9809C18.9113 11.4342 19.2913 10.9276 19.838 10.8516C21.502 10.6182 22.758 9.17424 22.7606 7.49157C22.7606 5.81957 21.5633 4.4089 19.9166 4.13957C19.3713 4.0489 19.002 3.53557 19.0913 2.99024C19.1806 2.4449 19.6966 2.07824 20.2393 2.1649ZM10.7892 2.6665C8.11584 2.6665 5.94117 4.84117 5.94117 7.51317C5.94117 10.1852 8.11584 12.3598 10.7892 12.3598H10.8305C12.1158 12.3545 13.3265 11.8492 14.2345 10.9332C15.1438 10.0198 15.6412 8.80517 15.6359 7.51717C15.6359 4.84117 13.4612 2.6665 10.7892 2.6665Z" fill="white"/>
</svg>
