<svg width="23" height="28" viewBox="0 0 23 28" fill="none" xmlns="http://www.w3.org/2000/svg">
<path fill-rule="evenodd" clip-rule="evenodd" d="M11.6447 0.666504C13.1554 0.666504 21.0821 3.38784 22.1314 4.43717C23.0061 5.31184 22.9928 6.0185 22.9314 9.40517C22.9074 10.7625 22.8741 12.6118 22.8741 15.1718C22.8741 24.3478 12.3807 27.6305 11.9341 27.7652C11.8394 27.7945 11.7421 27.8078 11.6447 27.8078C11.5474 27.8078 11.4501 27.7945 11.3554 27.7652C10.9087 27.6305 0.415416 24.3478 0.415416 15.1718C0.415416 12.6158 0.382083 10.7665 0.358083 9.40917C0.34713 8.80369 0.337709 8.2838 0.334608 7.83326L0.334229 7.32486C0.345666 5.65467 0.502416 5.09317 1.15942 4.43717C2.20608 3.38784 10.1327 0.666504 11.6447 0.666504ZM11.6447 2.6665C10.5141 2.6665 3.38075 5.1785 2.55808 5.86517C2.31542 6.10917 2.30608 6.53317 2.35808 9.37184C2.38208 10.7398 2.41542 12.5985 2.41542 15.1718C2.41542 22.1065 10.0447 25.1852 11.6434 25.7518C13.2407 25.1825 20.8741 22.0865 20.8741 15.1718C20.8741 12.5958 20.9074 10.7358 20.9328 9.36784C20.9834 6.53184 20.9741 6.10784 20.7167 5.85184C19.9101 5.1785 12.7754 2.6665 11.6447 2.6665ZM16.6068 10.4525C16.9974 10.8432 16.9974 11.4765 16.6068 11.8672L11.4094 17.0658C11.2601 17.2162 11.0672 17.3137 10.8602 17.3467L10.7027 17.3592C10.4374 17.3592 10.1827 17.2538 9.99475 17.0658L7.47208 14.5405C7.08275 14.1498 7.08275 13.5152 7.47342 13.1258C7.86275 12.7352 8.49742 12.7352 8.88808 13.1258L10.7027 14.9432L15.1934 10.4525C15.5841 10.0618 16.2161 10.0618 16.6068 10.4525Z" fill="white"/>
</svg>
