<svg width="28" height="28" viewBox="0 0 28 28" fill="none" xmlns="http://www.w3.org/2000/svg">
<path fill-rule="evenodd" clip-rule="evenodd" d="M13.3227 0.715526C13.8747 0.715526 14.3227 1.16353 14.3227 1.71553C14.3227 2.26753 13.8747 2.71553 13.3227 2.71553H8.33741C4.89208 2.71553 2.66675 5.07553 2.66675 8.72753V19.8129C2.66675 23.4649 4.89208 25.8249 8.33741 25.8249H20.1027C23.5481 25.8249 25.7747 23.4649 25.7747 19.8129V14.4422C25.7747 13.8902 26.2227 13.4422 26.7747 13.4422C27.3267 13.4422 27.7747 13.8902 27.7747 14.4422V19.8129C27.7747 24.6049 24.6907 27.8249 20.1027 27.8249H8.33741C3.74941 27.8249 0.666748 24.6049 0.666748 19.8129V8.72753C0.666748 3.93553 3.74941 0.715526 8.33741 0.715526H13.3227ZM24.9355 1.88699L26.5582 3.50966C27.3489 4.29899 27.7835 5.34833 27.7822 6.46566C27.7822 7.58299 27.3475 8.63099 26.5582 9.41899L16.5462 19.431C15.8115 20.1657 14.8329 20.571 13.7929 20.571H8.79821C8.52888 20.571 8.27021 20.4617 8.08221 20.2683C7.89421 20.0763 7.79155 19.8163 7.79821 19.5457L7.92355 14.507C7.94888 13.5043 8.35288 12.5617 9.06221 11.851H9.06355L19.0275 1.88699C20.6569 0.260325 23.3062 0.260325 24.9355 1.88699ZM18.2067 5.53499L10.4769 13.2657C10.1315 13.611 9.93555 14.0697 9.92355 14.5563L9.82355 18.571H13.7929C14.2995 18.571 14.7742 18.375 15.1329 18.0163L22.9094 10.2377L18.2067 5.53499ZM20.4409 3.30166L19.6201 4.12033L24.3227 8.82433L25.1449 8.00433C25.5555 7.59366 25.7822 7.04699 25.7822 6.46566C25.7822 5.88299 25.5555 5.33499 25.1449 4.92433L23.5222 3.30166C22.6729 2.45499 21.2915 2.45499 20.4409 3.30166Z" fill="white"/>
</svg>
